<?xml version="1.0" encoding="utf-8"?>
<!-- Generated by IcoMoon.io -->
<!DOCTYPE svg PUBLIC "-//W3C//DTD SVG 1.1//EN" "http://www.w3.org/Graphics/SVG/1.1/DTD/svg11.dtd">
<svg version="1.1" xmlns="http://www.w3.org/2000/svg" xmlns:xlink="http://www.w3.org/1999/xlink" width="28" height="28" viewBox="0 0 28 28">
	<path d="M26.25 15.75h-1.914q-0.547 3.281-2.912 5.66t-5.674 2.926v1.914q0 0.711-0.506 1.23t-1.244 0.52-1.244-0.52-0.506-1.23v-1.914q-3.309-0.547-5.674-2.926t-2.912-5.66h-1.914q-0.711 0-1.23-0.506t-0.52-1.244 0.506-1.244 1.244-0.506h1.914q0.547-3.281 2.912-5.66t5.674-2.926v-1.914q0-0.711 0.52-1.23t1.244-0.52 1.23 0.52 0.506 1.23v1.914q3.309 0.547 5.674 2.926t2.912 5.66h1.914q0.711 0 1.23 0.506t0.52 1.244-0.506 1.244-1.244 0.506zM14 7q-2.898 0-4.949 2.051t-2.051 4.949 2.051 4.949 4.949 2.051 4.949-2.051 2.051-4.949-2.051-4.949-4.949-2.051zM14.014 19.25q-2.174 0-3.719-1.531t-1.545-3.705 1.545-3.719 3.719-1.545 3.705 1.545 1.531 3.719-1.531 3.705-3.705 1.531z" fill="#666666" />
</svg>
