<?xml version="1.0" encoding="utf-8"?>
<!-- Generated by IcoMoon.io -->
<!DOCTYPE svg PUBLIC "-//W3C//DTD SVG 1.1//EN" "http://www.w3.org/Graphics/SVG/1.1/DTD/svg11.dtd">
<svg version="1.1" xmlns="http://www.w3.org/2000/svg" xmlns:xlink="http://www.w3.org/1999/xlink" width="28" height="28" viewBox="0 0 28 28">
	<path d="M22.148 18.566l-7.438 9.434-7.438-9.434q-1.996-2.078-2.721-4.881t0-5.605 2.734-4.895 4.717-2.83 5.414 0 4.717 2.83 2.734 4.895 0 5.605-2.721 4.881zM14.725 3.527q-2.912 0-4.963 2.051t-2.051 4.949 2.051 4.936 4.963 2.037 4.963-2.037 2.051-4.936-2.051-4.949-4.963-2.051zM18.238 12.25h-1.75v1.75q0 0.711-0.52 1.23t-1.244 0.52-1.23-0.52-0.506-1.23v-1.75h-1.75q-0.738 0-1.244-0.52t-0.506-1.244 0.506-1.23 1.244-0.506h1.75v-1.75q0-0.738 0.506-1.244t1.23-0.506 1.244 0.506 0.52 1.244v1.75h1.75q0.711 0 1.23 0.506t0.52 1.23-0.52 1.244-1.23 0.52z" fill="#666666" />
</svg>
