<?xml version="1.0" encoding="utf-8"?>
<!-- Generated by IcoMoon.io -->
<!DOCTYPE svg PUBLIC "-//W3C//DTD SVG 1.1//EN" "http://www.w3.org/Graphics/SVG/1.1/DTD/svg11.dtd">
<svg version="1.1" xmlns="http://www.w3.org/2000/svg" xmlns:xlink="http://www.w3.org/1999/xlink" width="28" height="28" viewBox="0 0 28 28">
	<path d="M27.48 27.48q-0.52 0.52-1.244 0.52t-1.244-0.52l-5.414-5.414q-3.281 2.434-7.328 2.434-2.488 0-4.758-0.971t-3.91-2.611-2.611-3.896-0.971-4.758 0.971-4.771 2.611-3.896 3.91-2.598 4.758-0.971 4.758 0.971 3.91 2.598 2.611 3.896 0.971 4.758q0 4.074-2.434 7.328l5.414 5.414q0.52 0.52 0.52 1.244t-0.52 1.244zM12.25 3.527q-2.379 0-4.389 1.162t-3.186 3.186-1.176 4.389 1.176 4.389 3.186 3.186 4.389 1.162 4.389-1.162 3.186-3.186 1.176-4.389-1.176-4.389-3.186-3.186-4.389-1.162z" fill="#666666" />
</svg>
